<svg xmlns="http://www.w3.org/2000/svg" xmlns:xlink="http://www.w3.org/1999/xlink" id="Layer_1" baseProfile="tiny-ps" version="1.2" viewBox="0 0 200 200" xml:space="preserve"><title>Temporal Technologies</title><path fill="#F2F2F2" d="M126.3,73.7C122.8,47.2,113.8,25,100,25c-13.8,0-22.8,22.2-26.3,48.7C47.2,77.2,25,86.2,25,100	c0,13.8,22.2,22.8,48.7,26.3C77.2,152.8,86.2,175,100,175c13.8,0,22.8-22.2,26.3-48.7c26.5-3.5,48.7-12.5,48.7-26.3	C175,86.2,152.8,77.2,126.3,73.7z M72.9,118.5c-25.4-3.7-40.3-12.1-40.3-18.5c0-6.5,14.8-14.9,40.3-18.5C72.3,87.5,72,93.8,72,100	C72,106.1,72.3,112.4,72.9,118.5z M100,32.6c6.5,0,14.9,14.8,18.5,40.3c-6.1-0.6-12.4-0.8-18.5-0.8c-6.2,0-12.4,0.3-18.5,0.8	C85.1,47.4,93.5,32.6,100,32.6z M127.1,118.5c-1.2,0.2-6.4,0.8-7.7,0.9c-0.1,1.3-0.7,6.4-0.9,7.7c-3.7,25.4-12.1,40.3-18.5,40.3	c-6.5,0-14.9-14.8-18.5-40.3c-0.2-1.2-0.8-6.4-0.9-7.7c-0.6-6-1-12.5-1-19.5c0-7,0.3-13.4,1-19.5c6-0.6,12.5-1,19.5-1	c7,0,13.4,0.3,19.5,1c1.3,0.1,6.4,0.7,7.7,0.9c25.4,3.7,40.3,12.1,40.3,18.5C167.4,106.4,152.6,114.8,127.1,118.5z"/></svg>